<?xml version="1.0" encoding="UTF-8"?>
<svg version="1.1" xmlns="http://www.w3.org/2000/svg" width="512" height="512">
<path d="M0 0 C168.96 0 337.92 0 512 0 C512 168.96 512 337.92 512 512 C343.04 512 174.08 512 0 512 C0 343.04 0 174.08 0 0 Z " fill="#4B044F" transform="translate(0,0)"/>
<path d="M0 0 C0.74517307 0.00176947 1.49034614 0.00353894 2.25810021 0.00536203 C3.04622658 0.0033094 3.83435296 0.00125677 4.64636195 -0.00085807 C7.32140378 -0.00657053 9.99639482 -0.00506563 12.67144173 -0.0036521 C14.5950237 -0.00623331 16.51860514 -0.00924578 18.44218582 -0.0126555 C23.75481105 -0.02075751 29.06742279 -0.02251684 34.38005346 -0.02325296 C40.09934339 -0.02509799 45.81862622 -0.03264254 51.53791207 -0.03938818 C64.05638343 -0.052995 76.5748516 -0.05899995 89.09332913 -0.06339884 C96.90384968 -0.06615745 104.71436899 -0.07039411 112.52488869 -0.07490301 C134.13209 -0.08709903 155.73928979 -0.09743291 177.34649438 -0.1007781 C178.74455652 -0.10099974 180.14261867 -0.10122152 181.54068081 -0.10144345 C182.94217103 -0.1016641 184.34366124 -0.10188458 185.74515146 -0.1021049 C188.55690561 -0.10254746 191.36865976 -0.10299458 194.1804139 -0.10344458 C194.87756876 -0.10355397 195.57472361 -0.10366336 196.29300437 -0.10377606 C218.90173221 -0.10740724 241.51042799 -0.12332844 264.11914355 -0.14663494 C288.00861295 -0.1712168 311.89806198 -0.18494346 335.78754467 -0.18614602 C348.8154229 -0.18706421 361.84325917 -0.19285265 374.87112588 -0.21096563 C385.96376791 -0.22633316 397.05635503 -0.23150696 408.14900568 -0.22322753 C413.81231863 -0.21930904 419.47552088 -0.22030881 425.13882035 -0.23428488 C430.31905766 -0.2469523 435.49910029 -0.24588968 440.67933705 -0.23369417 C442.55758204 -0.23172467 444.43584048 -0.23487282 446.3140665 -0.24353853 C448.85959998 -0.25454333 451.40443569 -0.24720585 453.94994897 -0.235147 C455.05366157 -0.24653979 455.05366157 -0.24653979 456.17967141 -0.25816274 C460.57897587 -0.21291373 463.36959381 0.41408845 466.85570687 3.1367898 C469.30284042 6.80749012 469.13539737 9.54166425 469.11018246 13.7852788 C469.11338894 14.57571286 469.11659542 15.36614692 469.11989906 16.18053353 C469.12825587 18.85143923 469.12225504 21.52212399 469.11640328 24.1930337 C469.11942138 26.11834268 469.12330914 28.04365047 469.12799585 29.96895611 C469.13832869 35.27708045 469.13608064 40.58513765 469.13181525 45.89326763 C469.12935756 51.61116287 469.13835025 57.32904154 469.14585274 63.04693079 C469.15862865 74.2557636 469.16038983 85.46457249 469.15805248 96.67341135 C469.15627234 105.78085233 469.15801243 114.88828601 469.16227692 123.99572611 C469.16287211 125.28996972 469.1634673 126.58421334 469.16408053 127.91767646 C469.16529223 130.5466022 469.16650636 133.17552794 469.1677229 135.80445369 C469.17551504 153.46691648 469.1794258 171.12937587 469.17540616 188.79184008 C469.17524978 189.48291168 469.17509341 190.17398328 469.17493229 190.88599644 C469.17412648 194.38881267 469.17328071 197.89162889 469.17241899 201.39444511 C469.17216236 202.43799483 469.17216236 202.43799483 469.17190054 203.50262637 C469.17155389 204.9095015 469.17120536 206.31637662 469.17085495 207.72325175 C469.16549739 229.61567098 469.17342778 251.50804995 469.19188851 273.40046167 C469.21259383 297.98363647 469.22330291 322.56678397 469.21931303 347.14996827 C469.21739734 360.17110638 469.21992416 373.19220779 469.23402756 386.21333933 C469.24591228 397.29861739 469.24737908 408.38383617 469.2352374 419.469115 C469.22932812 425.12838848 469.22830558 430.78755339 469.2402398 436.44681978 C469.2510293 441.62328129 469.24807848 446.79954267 469.23397812 451.97599454 C469.23131194 453.8528319 469.23375733 455.7296846 469.24171398 457.60650699 C469.25175246 460.15012208 469.24345636 462.69303236 469.23043698 465.23661852 C469.23774633 465.97185523 469.24505567 466.70709194 469.25258651 467.46460855 C469.20566375 471.86219611 468.52571775 474.62090773 465.85570687 478.1367898 C462.40644806 480.71550294 458.87154499 480.36642782 454.68383187 480.3321023 C453.66020547 480.32785746 453.66020547 480.32785746 452.61589974 480.32352686 C450.4456538 480.31237078 448.27582716 480.28727537 446.10570687 480.2617898 C444.63045243 480.25175405 443.1551915 480.24262924 441.67992562 480.23444605 C438.07171745 480.21244667 434.46375312 480.17794863 430.85570687 480.1367898 C430.47801156 478.95987574 430.10031625 477.78296167 429.71117562 476.57038355 C420.56483802 448.85792061 406.99624404 424.16623658 387.85570687 402.1367898 C387.38278207 401.58942163 386.90985726 401.04205347 386.4226014 400.47809839 C358.94457291 368.92274796 323.41366255 348.81767787 283.85570687 336.1367898 C286.24116896 333.60967001 288.70595147 331.98870062 291.74144906 330.2840066 C311.30325157 319.2711976 325.78086655 303.48310335 336.85570687 284.1367898 C337.40871468 283.1983523 337.9617225 282.2599148 338.53148812 281.2930398 C344.18330171 270.93392056 347.29890456 259.33704886 350.85570687 248.1367898 C351.83668343 248.12261011 352.81766 248.10843042 353.82836312 248.09382105 C370.04510446 247.61977764 384.51738899 243.07504709 396.66820687 231.8242898 C407.06128908 220.71015643 410.98496811 207.73995614 411.03270882 192.88776636 C411.03928002 191.98757776 411.04585122 191.08738916 411.05262154 190.15992212 C411.07223266 187.19908532 411.08398902 184.23829891 411.09398812 181.2774148 C411.09806365 180.2605031 411.10213917 179.2435914 411.1063382 178.1958642 C411.12714569 172.8145212 411.14147109 167.4332033 411.15087289 162.05182886 C411.1619342 156.51629916 411.19634656 150.98117173 411.23604459 145.44578409 C411.26227709 141.16817498 411.27057055 136.89066092 411.27415437 132.61297846 C411.27900206 130.57338474 411.29056371 128.53379474 411.30919236 126.49428034 C411.56704369 111.36210565 411.56704369 111.36210565 406.85570687 97.1367898 C406.1344764 95.66145777 406.1344764 95.66145777 405.39867562 94.15632105 C398.51219424 82.94346232 390.56491138 74.12706533 377.41820687 70.6367898 C374.93773812 69.73444605 374.93773812 69.73444605 372.85570687 68.1367898 C371.37447421 64.50265441 370.55463223 60.85666062 369.76195687 57.03132105 C367.05322096 45.39076198 359.27749781 35.80994068 349.41820687 29.3242898 C335.52094036 21.05484196 323.11177699 19.83627076 307.2038514 19.8621316 C305.42876378 19.85777815 303.65367804 19.8525929 301.87859505 19.84664392 C297.08099247 19.83331085 292.28346895 19.83266888 287.48585147 19.83520722 C283.47018397 19.8362808 279.45453221 19.83138372 275.43886811 19.8266018 C265.95980096 19.81552632 256.48077344 19.81505819 247.00170296 19.82111597 C237.24620537 19.82715486 227.49085203 19.81484237 217.73537904 19.7935459 C209.33759782 19.77589226 200.93986237 19.76993447 192.5420633 19.77318364 C187.53615988 19.77499062 182.53035939 19.77241896 177.52447289 19.7584691 C172.81461557 19.74583397 168.1049821 19.74788832 163.39512795 19.76087999 C161.67472285 19.76323297 159.95430172 19.76055738 158.23391503 19.75225687 C140.88706687 19.67464954 124.89040672 22.56148358 111.76586312 34.9336648 C105.131704 42.58533298 99.85940556 51.13618654 97.85570687 61.1367898 C97.67008187 62.05331324 97.48445687 62.96983667 97.29320687 63.91413355 C97.14883187 64.64761011 97.00445687 65.38108667 96.85570687 66.1367898 C96.02168343 66.23475855 95.18766 66.3327273 94.32836312 66.4336648 C87.18851816 67.38237272 81.16011088 68.62825191 74.85570687 72.1367898 C73.95980843 72.6317898 73.06391 73.1267898 72.14086312 73.6367898 C59.7785347 80.96261405 51.39582538 92.28278359 47.26616353 106.11086226 C46.5347871 109.72078212 46.70848762 113.40713196 46.7104432 117.07697535 C46.70708459 117.97993845 46.70372597 118.88290155 46.70026559 119.81322718 C46.69076325 122.80000162 46.68881259 125.78671992 46.68773812 128.77350855 C46.68452419 130.85373441 46.68116001 132.93396004 46.67765206 135.01418543 C46.67166198 139.37789416 46.66981195 143.7415831 46.67040414 148.10529566 C46.67050556 153.68245707 46.65687366 159.2594906 46.63963193 164.83662176 C46.62848152 169.13560039 46.62648589 173.43454845 46.62701386 177.73354006 C46.62583755 179.78871904 46.62143544 181.8438989 46.6136815 183.89906359 C46.60382366 186.78267564 46.60678283 189.66601463 46.61278695 192.5496316 C46.60716744 193.38995935 46.60154794 194.23028711 46.59575814 195.09607935 C46.67175418 209.54563611 52.36503045 222.54300778 62.39476937 232.9492898 C75.82831435 244.89021867 89.5784556 247.51420548 106.85570687 247.1367898 C107.20182015 248.42649683 107.20182015 248.42649683 107.55492562 249.74225855 C116.87311387 283.51608712 134.84403103 312.55354817 165.86840218 330.1824441 C168.89079453 331.90234458 171.57809494 333.47540443 173.85570687 336.1367898 C172.77676156 336.4771023 171.69781625 336.8174148 170.58617562 337.1680398 C137.91398117 347.65086031 109.05043883 363.64380728 83.85570687 387.1367898 C83.3201014 387.63388453 82.78449593 388.13097925 82.23266 388.64313745 C74.22521445 396.15321076 67.41001038 404.34745663 60.85570687 413.1367898 C60.21786263 413.97548609 60.21786263 413.97548609 59.56713265 414.83112574 C50.02878154 427.3949054 42.58971456 440.9930074 36.04320687 455.3242898 C35.6944349 456.08241968 35.34566293 456.84054956 34.9863221 457.62165308 C31.73549095 464.94086188 29.31002172 472.5231595 26.85570687 480.1367898 C22.39006386 480.26076127 17.92534249 480.35129971 13.45849007 480.411448 C11.94040886 480.43653089 10.42244769 480.4706064 8.90477914 480.51398706 C6.71754722 480.57492273 4.53191648 480.60305875 2.34398812 480.62507105 C1.0295472 480.65125513 -0.28489372 480.67743921 -1.63916618 480.70441675 C-6.00408088 479.99755413 -7.40882957 478.52526995 -10.14429313 475.1367898 C-11.66327257 472.09883091 -11.28668358 468.94416727 -11.28130752 465.61134863 C-11.28395935 464.82206841 -11.28661117 464.0327882 -11.28934336 463.2195904 C-11.29706766 460.54664865 -11.29759672 457.8737526 -11.29819328 455.20080042 C-11.30220583 453.27635509 -11.3066437 451.35191062 -11.31147283 449.42746717 C-11.32346711 444.11710458 -11.32909336 438.80675108 -11.33365399 433.49637759 C-11.3395992 427.77778452 -11.35121163 422.0592024 -11.3619445 416.3406167 C-11.38649189 402.52002783 -11.40109833 388.69943533 -11.41400456 374.87883136 C-11.41771455 370.9779132 -11.42168793 367.0769954 -11.42575723 363.1760776 C-11.45098989 338.97201191 -11.47306762 314.76794666 -11.48548537 290.56387091 C-11.48840681 284.95479502 -11.49137431 279.34571915 -11.49439079 273.73664331 C-11.49476169 273.03977134 -11.4951326 272.34289937 -11.49551475 271.62491007 C-11.50767443 249.02284195 -11.538625 226.42085162 -11.58031231 203.81882004 C-11.62428547 179.93397057 -11.65001608 156.04917269 -11.65540594 132.16428167 C-11.65882549 119.13973603 -11.67064475 106.11531315 -11.70350868 93.09080553 C-11.73144236 82.00182447 -11.74253792 70.91299131 -11.73131321 59.82397779 C-11.72610959 54.16260634 -11.7291237 48.50154493 -11.75377876 42.84021807 C-11.77614347 37.66176066 -11.77563138 32.48383831 -11.75657488 27.30537234 C-11.75375686 25.42782475 -11.75947244 23.55024185 -11.77438782 21.67275139 C-11.79337657 19.12775988 -11.78178629 16.58469947 -11.76232558 14.03975439 C-11.77517481 13.30423183 -11.78802403 12.56870928 -11.80126262 11.81089815 C-11.7341737 7.84062052 -11.26985293 6.28543743 -8.6681661 3.20535451 C-7.83528802 2.52272816 -7.00240994 1.8401018 -6.14429313 1.1367898 C-4.4360157 -0.57148763 -2.27899802 0.01025309 0 0 Z " fill="#EFAAFB" transform="translate(27.144293129444122,15.863210201263428)"/>
<path d="M0 0 C0.0093457 0.77077881 0.01869141 1.54155762 0.02832031 2.33569336 C0.08241658 5.87024806 0.16598842 9.40353482 0.25 12.9375 C0.26417969 14.14986328 0.27835938 15.36222656 0.29296875 16.61132812 C0.49229384 23.96642382 1.35480827 29.57722662 5 36 C5.556875 37.051875 6.11375 38.10375 6.6875 39.1875 C11.5720366 45.12815263 18.70583304 49.57794473 26.41796875 50.3359375 C35.76592153 50.43280748 42.63594881 49.16966661 50.75 44.375 C59.87098513 34.74729348 61.26012878 24.20968087 61.625 11.5 C61.68300781 9.83710938 61.68300781 9.83710938 61.7421875 8.140625 C61.83575243 5.42724203 61.92149483 2.71385339 62 0 C83.94597233 2.88206642 104.56817557 10.5508596 124 21 C124.88631104 21.465271 124.88631104 21.465271 125.79052734 21.93994141 C140.78517714 29.84043813 153.86303042 40.23268431 166 52 C166.56460937 52.53882813 167.12921875 53.07765625 167.7109375 53.6328125 C180.15916896 65.53745307 190.03317617 78.32776239 199 93 C199.67933594 94.09828125 200.35867188 95.1965625 201.05859375 96.328125 C207.93417206 107.85443561 213.31350682 120.09727387 217 133 C192.58 133 168.16 133 143 133 C142.75 113.25 142.75 113.25 142.70214844 107.03222656 C142.67277747 105.40166399 142.64195145 103.77112669 142.609375 102.140625 C142.60824707 101.29741699 142.60711914 100.45420898 142.60595703 99.58544922 C142.48792214 94.69292393 142.48792214 94.69292393 140.18457031 90.45605469 C137.00497722 88.33679975 134.72901213 88.52539846 131 89 C120.58633377 99.41366623 127.35909194 118.2772305 127 133 C63.64 133 0.28 133 -65 133 C-65.33 119.47 -65.66 105.94 -66 92 C-69.07975943 88.77689059 -69.07975943 88.77689059 -73 88.5625 C-74.0209375 88.53349609 -74.0209375 88.53349609 -75.0625 88.50390625 C-77.10290703 88.86370893 -77.10290703 88.86370893 -78.58911133 90.4597168 C-80.70319635 94.26609413 -80.47995255 97.85075327 -80.51171875 102.140625 C-80.52835571 102.9229248 -80.54499268 103.70522461 -80.56213379 104.51123047 C-80.61981704 107.42388225 -80.65215684 110.33699149 -80.6875 113.25 C-80.790625 119.7675 -80.89375 126.285 -81 133 C-105.42 133 -129.84 133 -155 133 C-151.26720713 121.8016214 -147.45845871 112.20741668 -142 102 C-141.48179687 101.00782471 -141.48179687 101.00782471 -140.953125 99.99560547 C-131.58427962 82.10128558 -119.23488225 67.23488225 -105 53 C-104.38640625 52.34 -103.7728125 51.68 -103.140625 51 C-79.67178668 26.17346029 -35.05837993 0 0 0 Z " fill="#A11BAE" transform="translate(225,363)"/>
<path d="M0 0 C7.92 0 15.84 0 24 0 C24.309375 3.09375 24.309375 3.09375 24.625 6.25 C26.11491662 16.49317678 29.97599198 25.15130339 37.6484375 32.24609375 C47.61349491 39.67850368 56.83010786 41.74509544 69 41 C77.012045 39.74612558 83.31664835 36.47634933 90 32 C90.99 31.34 91.98 30.68 93 30 C93.35191406 30.6290625 93.70382812 31.258125 94.06640625 31.90625 C99.87258259 41.97231028 105.39601278 48.11408324 115.62109375 53.84765625 C118 56 118 56 118.53125 59.15625 C117.88476026 63.83379338 116.65595107 68.00338132 115.0625 72.4375 C114.75038574 73.31204834 114.43827148 74.18659668 114.11669922 75.08764648 C105.99018606 97.01010143 90.89627888 116.52048634 71 129 C70.23558594 129.50917969 69.47117187 130.01835937 68.68359375 130.54296875 C46.20161767 144.95069313 17.93431242 149.1904986 -8.1875 144.9375 C-36.8943292 138.62669399 -62.62487495 122.19357753 -78.90625 97.4765625 C-85.75976195 86.33321238 -96.02442534 69.43339605 -94 56 C-91.92783285 54.10856322 -90.3154374 52.92612678 -87.9375 51.5625 C-79.00167945 45.91119728 -73.75465759 39.46549346 -69 30 C-68.32195312 30.45890625 -67.64390625 30.9178125 -66.9453125 31.390625 C-55.06333614 39.22417174 -46.10608467 42.48778482 -31.6796875 40.71484375 C-22.17280263 38.73263901 -13.91758483 33.63190661 -8 26 C-2.55308458 17.66016728 -0.98325027 9.83250266 0 0 Z " fill="#EFAAFB" transform="translate(244,202)"/>
<path d="M0 0 C0.72928477 -0.00367669 1.45856954 -0.00735338 2.20995384 -0.01114148 C4.65471128 -0.02215787 7.09942619 -0.02601875 9.54420471 -0.02983093 C11.29707982 -0.03609736 13.0499536 -0.04274432 14.80282593 -0.04974365 C20.56239397 -0.07077332 26.32196224 -0.08114822 32.08155823 -0.09111023 C34.06738359 -0.09515885 36.05320881 -0.0992758 38.03903389 -0.10346031 C47.37384709 -0.12251326 56.70865239 -0.13674145 66.04348129 -0.14507228 C76.79997066 -0.15483136 87.55625352 -0.18111568 98.31267017 -0.22157317 C106.63730298 -0.25180323 114.96187685 -0.26654786 123.28656346 -0.26985329 C128.25295844 -0.27219683 133.21913284 -0.28106559 138.18546867 -0.30631447 C142.86491199 -0.32971956 147.54399147 -0.33377878 152.22347832 -0.32355309 C153.93218196 -0.32306055 155.64090427 -0.32929684 157.34955215 -0.34310913 C171.57317182 -0.45156642 184.8152032 1.05601652 195.77296448 11.14717102 C204.36660385 20.95919027 206.80281444 30.77200798 206.30812073 43.55732727 C205.5418138 52.76261327 201.01605842 60.46272118 194.33546448 66.77217102 C182.6040595 76.06201456 170.33616259 76.44143712 155.96217346 76.3742218 C154.26628628 76.37365695 152.57039861 76.37397569 150.87451172 76.37510681 C146.29250283 76.37567844 141.71059958 76.363955 137.12861514 76.3499589 C132.33201562 76.33741976 127.53541343 76.33627853 122.73880005 76.33390808 C113.66550571 76.32770265 104.59225981 76.31130454 95.51898676 76.2912091 C85.18524507 76.2688209 74.85150101 76.25784933 64.51774108 76.24781823 C43.26945522 76.22693747 22.02121291 76.19177975 0.77296448 76.14717102 C0.51756897 75.2768927 0.26217346 74.40661438 -0.0009613 73.50996399 C-0.34626892 72.35641418 -0.69157654 71.20286438 -1.04734802 70.01435852 C-1.38524353 68.8759552 -1.72313904 67.73755188 -2.0712738 66.56465149 C-6.83559478 52.47699518 -15.5701335 42.99162795 -28.76219177 36.37373352 C-31.89965641 34.91937015 -35.04783835 33.50754849 -38.22703552 32.14717102 C-37.88388317 22.88205743 -33.68742084 16.17224212 -27.03953552 9.83467102 C-19.02979903 3.12821369 -10.31489264 0.03373138 0 0 Z " fill="#A11BAE" transform="translate(178.22703552246094,50.85282897949219)"/>
<path d="M0 0 C11.76670402 6.08252587 17.83763038 14.31318411 22.0168457 26.85083008 C22.12369082 29.67860391 22.17410712 32.48208926 22.17797852 35.31030273 C22.18542587 36.60600693 22.18542587 36.60600693 22.19302368 37.92788696 C22.20764625 40.79023025 22.21444893 43.65251804 22.2199707 46.51489258 C22.22572389 48.50686647 22.23148161 50.49884034 22.23724365 52.49081421 C22.24775516 56.6721828 22.25359625 60.85353216 22.25708008 65.03491211 C22.26255255 70.37787214 22.28655329 75.72057575 22.31505203 81.06345558 C22.33373419 85.18143438 22.33888707 89.29935225 22.34041595 93.41736984 C22.34343251 95.38603486 22.35142716 97.35469905 22.36460114 99.3233223 C22.38177162 102.08740585 22.37975421 104.8508741 22.37329102 107.61499023 C22.3825058 108.41948608 22.39172058 109.22398193 22.4012146 110.05285645 C22.32358786 120.72028705 18.10137316 129.14999626 11.08325195 137.01879883 C3.49742444 144.43759895 -5.46663254 148.03211835 -16.0456543 148.47583008 C-26.72507439 148.03678725 -36.51122677 143.50884009 -43.9831543 135.85083008 C-50.36783076 127.44800875 -53.28507156 120.25468522 -53.27368164 109.77539062 C-53.28039886 108.88188904 -53.28711609 107.98838745 -53.29403687 107.06781006 C-53.31297969 104.12433252 -53.31693925 101.18108347 -53.3190918 98.23754883 C-53.3255225 96.18260099 -53.33225106 94.12765406 -53.33926392 92.07270813 C-53.35122754 87.76801431 -53.3549457 83.46340068 -53.35375977 79.15869141 C-53.35355668 73.65765517 -53.3808527 68.15713612 -53.41530418 62.65622234 C-53.43760254 58.41213139 -53.44159639 54.16816429 -53.44054031 49.92402077 C-53.44289208 47.89673901 -53.45169154 45.86945361 -53.46720505 43.84222984 C-53.48692352 40.99927508 -53.48100393 38.15742785 -53.46899414 35.31445312 C-53.48023315 34.48661819 -53.49147217 33.65878326 -53.50305176 32.80586243 C-53.39654331 22.82386009 -48.51064117 14.53284154 -41.8581543 7.28833008 C-31.35459258 -2.96514684 -13.43668339 -6.00924702 0 0 Z " fill="#A11BAE" transform="translate(141.983154296875,100.149169921875)"/>
<path d="M0 0 C9.08275752 2.49874989 16.37498342 9.90063362 21 18 C23.62224795 23.95392029 24.43980224 28.71285307 24.40405273 35.17895508 C24.41091599 36.05978256 24.41777924 36.94061005 24.42485046 37.84812927 C24.44304144 40.73876405 24.43929117 43.62885191 24.43359375 46.51953125 C24.43816 48.54440994 24.44346689 50.56928708 24.44947815 52.59416199 C24.45839474 56.83147489 24.45600352 61.06859918 24.44604492 65.3059082 C24.43457101 70.71255926 24.45475024 76.11855564 24.48396206 81.52512074 C24.5023889 85.7058266 24.50201846 89.88637756 24.49632454 94.06711388 C24.49617204 96.05924076 24.50215652 98.05137864 24.51461601 100.04346657 C24.59281477 114.59790244 24.0540976 125.81461705 13.42578125 136.7734375 C5.15355283 144.36630416 -3.6670988 148.71436778 -15.03515625 148.34765625 C-27.64044066 146.86956625 -36.43223084 141.65439613 -44.4609375 132.0859375 C-49.49854347 125.25831926 -51.15749292 119.06170252 -51.11352539 110.66113281 C-51.11367142 109.92903091 -51.11381744 109.19692902 -51.1139679 108.44264221 C-51.11327276 106.02943938 -51.10549908 103.6163143 -51.09765625 101.203125 C-51.09579065 99.52732383 -51.09436742 97.85152212 -51.09336853 96.17572021 C-51.08955452 91.76986174 -51.07973376 87.36403634 -51.06866455 82.95819092 C-51.05842643 78.46041308 -51.05386576 73.96262989 -51.04882812 69.46484375 C-51.0381105 60.64321465 -51.02104747 51.82161008 -51 43 C-49.77764397 42.80981293 -49.77764397 42.80981293 -48.53059387 42.61578369 C-47.45677963 42.44383484 -46.38296539 42.27188599 -45.27661133 42.09472656 C-44.21420731 41.92668518 -43.15180328 41.7586438 -42.0572052 41.58551025 C-37.99425954 40.80738246 -34.42792053 39.4796001 -30.6875 37.75 C-30.00671387 37.44570068 -29.32592773 37.14140137 -28.62451172 36.82788086 C-23.67854254 34.53124015 -19.91651575 31.82326538 -16 28 C-15.34 28 -14.68 28 -14 28 C-13.72929687 27.41605469 -13.45859375 26.83210938 -13.1796875 26.23046875 C-12.00859886 24.0162581 -10.69764257 22.25589509 -9.125 20.3125 C-4.44097735 14.16614832 -1.89817618 7.43452335 0 0 Z " fill="#A11BAE" transform="translate(399,100)"/>
<path d="M0 0 C50.16 0 100.32 0 152 0 C152 9.57 152 19.14 152 29 C149.4757535 27.9903014 146.95154813 26.98048671 144.4296875 25.96484375 C143.16511719 25.45630859 143.16511719 25.45630859 141.875 24.9375 C141.02679688 24.59589844 140.17859375 24.25429687 139.3046875 23.90234375 C130.4694043 20.44310575 121.25614879 21.11952805 112.5625 24.74609375 C104.03921454 28.91678679 97.3273744 34.3452512 93 43 C88.28643987 43.24850467 83.57673554 43.42920182 78.8581543 43.54931641 C77.25624158 43.59940142 75.6547815 43.66749983 74.05444336 43.75439453 C60.6968874 44.46114352 60.6968874 44.46114352 56.52392578 40.86791992 C54.79800221 38.31833454 53.4027679 35.73639102 52 33 C42.81181015 24.59116554 32.67555446 21.62756433 20.43359375 21.7109375 C13.34948384 22.30732445 7.62286454 24.77982855 2 29 C1.34 29 0.68 29 0 29 C0 19.43 0 9.86 0 0 Z " fill="#EEA9FA" transform="translate(180,143)"/>
<path d="M0 0 C5.65444913 3.34593849 10.29439957 9.19179247 12.36328125 15.3984375 C13.29371966 22.84194478 12.34954464 28.99977523 8.36328125 35.3984375 C5.86328125 38.2734375 5.86328125 38.2734375 3.36328125 40.3984375 C2.72390625 40.9553125 2.08453125 41.5121875 1.42578125 42.0859375 C-4.49182577 45.85168742 -10.81234795 46.15670092 -17.63671875 45.3984375 C-24.32159495 43.55834963 -28.77331496 38.98913029 -32.63671875 33.3984375 C-35.6012742 28.06854525 -36.68302114 22.42713223 -35.63671875 16.3984375 C-32.72791037 7.8530049 -28.02921702 2.83871432 -20.26171875 -1.4765625 C-12.98898693 -3.7336172 -6.96502797 -3.05464679 0 0 Z " fill="#A01BAD" transform="translate(215.63671875,182.6015625)"/>
<path d="M0 0 C6.17138857 3.64162929 10.36419403 9.57411602 12.36328125 16.39453125 C13.52114251 24.08325038 11.73595385 30.01725812 7.36328125 36.39453125 C2.90360459 41.42623294 -2.4597237 44.88727998 -9.2421875 45.7109375 C-17.27819625 46.05454615 -22.4711658 44.20835609 -28.44921875 38.89453125 C-34.20356045 32.31814073 -36.15645388 26.95367146 -35.94140625 18.13671875 C-35.13331757 10.86392065 -31.26749495 6.36460501 -25.70703125 1.87109375 C-17.35854325 -4.0831109 -9.14283075 -4.02398305 0 0 Z " fill="#A01BAD" transform="translate(319.63671875,182.60546875)"/>
<path d="M0 0 C2.8671875 1.57421875 2.8671875 1.57421875 5.875 3.6875 C19.19327581 12.42410272 33.3884728 14.90141254 49.125 12.3125 C56.95993439 10.45823219 64.77928767 7.6953599 71.4375 3.125 C74.14858871 1.31570501 74.82994803 1.00327023 78.25 0.9375 C81.47313869 2.18280359 83.00822259 3.16554753 85 6 C85.60449629 9.55141572 85.36194417 11.34191969 83.625 14.5 C77.48384965 20.34871461 70.25938541 23.48222983 62.375 26.3125 C61.67093018 26.56700928 60.96686035 26.82151855 60.24145508 27.08374023 C42.87713187 33.03253497 22.72948276 31.22086699 6.25976562 23.46801758 C-7.1206341 16.81904885 -7.1206341 16.81904885 -11 11 C-11.4375 8.125 -11.4375 8.125 -11 5 C-7.65044518 0.46824936 -5.54793976 -0.63230196 0 0 Z " fill="#4D0751" transform="translate(218,280)"/>
<path d="M0 0 C9.9 0 19.8 0 30 0 C30.061875 3.650625 30.12375 7.30125 30.1875 11.0625 C30.21481201 12.19953369 30.24212402 13.33656738 30.27026367 14.50805664 C30.31903294 20.4731155 29.96135577 24.77366428 27 30 C22.36619093 34.40211862 18.49521085 35.3558398 12.28515625 35.28515625 C7.84572383 34.73117579 5.09566661 32.20901143 2.1875 29 C-0.01432651 25.29166062 -0.12128171 21.83070775 -0.09765625 17.578125 C-0.09515869 16.65418945 -0.09266113 15.73025391 -0.09008789 14.77832031 C-0.08098389 13.61397461 -0.07187988 12.44962891 -0.0625 11.25 C-0.041875 7.5375 -0.02125 3.825 0 0 Z " fill="#EDA8F9" transform="translate(241,363)"/>
<path d="M0 0 C0.33 0 0.66 0 1 0 C1 5.94 1 11.88 1 18 C-4.94 18 -10.88 18 -17 18 C-15 16 -15 16 -11.75 14.3125 C-6.06642772 11.13254724 -1.9014186 6.27468138 0 0 Z " fill="#000000" transform="translate(511,494)"/>
<path d="M0 0 C0.99 1.485 0.99 1.485 2 3 C6.45557254 9.36323702 10.40644905 14.39649682 18 17 C18 17.33 18 17.66 18 18 C12.06 18 6.12 18 0 18 C0 12.06 0 6.12 0 0 Z " fill="#000000" transform="translate(0,494)"/>
<path d="M0 0 C5.94 0 11.88 0 18 0 C18 5.94 18 11.88 18 18 C16 16 16 16 14.3125 12.75 C11.13254724 7.06642772 6.27468138 2.9014186 0 1 C0 0.67 0 0.34 0 0 Z " fill="#000000" transform="translate(494,0)"/>
<path d="M0 0 C5.94 0 11.88 0 18 0 C17.01 0.66 16.02 1.32 15 2 C9.43365792 5.76135668 5.63606395 9.33201796 2 15 C1.34 15.99 0.68 16.98 0 18 C0 12.06 0 6.12 0 0 Z " fill="#000000" transform="translate(0,0)"/>
</svg>
