<?xml version="1.0" encoding="UTF-8"?>
<svg version="1.1" xmlns="http://www.w3.org/2000/svg" width="512" height="512">
<path d="M0 0 C168.96 0 337.92 0 512 0 C512 168.96 512 337.92 512 512 C343.04 512 174.08 512 0 512 C0 343.04 0 174.08 0 0 Z " fill="#7C2DC1" transform="translate(0,0)"/>
<path d="M0 0 C1.58937559 -0.00571053 3.17874708 -0.01267742 4.76811218 -0.02079773 C9.06369502 -0.03866998 13.3590729 -0.03757186 17.65468168 -0.03185534 C21.25038121 -0.02875454 24.84604188 -0.03486592 28.44173586 -0.04089409 C36.92977767 -0.05491855 45.41771878 -0.05339568 53.90576172 -0.04199219 C62.64055505 -0.03051596 71.37504116 -0.04458302 80.10979402 -0.07138866 C87.62942766 -0.09359489 95.14896521 -0.10017189 102.66862929 -0.09431225 C107.15084864 -0.09095287 111.63287117 -0.0932895 116.11506271 -0.11056328 C120.33251914 -0.12610884 124.54952301 -0.12199325 128.76696205 -0.10325813 C130.3071783 -0.09959304 131.84742865 -0.10261947 133.3876133 -0.11314392 C144.21131839 -0.1814095 154.22400314 0.43147332 162.62744141 7.96655273 C169.25540304 15.49414112 170.7918517 24.36203771 170.69114685 34.11256409 C170.69944845 35.64128542 170.69944845 35.64128542 170.70791775 37.20089 C170.72143148 40.58470248 170.70660525 43.96776544 170.69165039 47.3515625 C170.6954369 49.79013378 170.70093967 52.22870291 170.70802307 54.66726685 C170.72050692 60.58412148 170.71444067 66.50078068 170.69934749 72.41761298 C170.68242074 79.31788936 170.68570598 86.21811328 170.68944157 93.11840402 C170.69530993 105.43526173 170.68118833 117.75201696 170.65649414 130.06884766 C170.63257115 142.00248046 170.62549323 153.93597642 170.63598633 165.86962891 C170.64741184 178.88688579 170.64930586 191.9040795 170.63488823 204.92133564 C170.6333625 206.3109852 170.63184214 207.70063477 170.63032722 209.09028435 C170.62956941 209.77389582 170.6288116 210.45750729 170.62803082 211.16183426 C170.623301 215.96429419 170.62513011 220.76672578 170.62939262 225.56918526 C170.63485166 232.039598 170.62401446 238.50986384 170.60243797 244.98024368 C170.59688532 247.35134304 170.59639078 249.72246059 170.60139084 252.09356117 C170.60737104 255.3367569 170.59478566 258.5793807 170.57762146 261.82252502 C170.58663653 263.22084662 170.58663653 263.22084662 170.59583372 264.64741713 C170.50567747 274.05291926 168.61536268 281.85240923 162.01416016 288.71655273 C155.25299057 294.97099655 148.33937215 296.71954394 139.28688049 296.64456177 C138.52135878 296.64627062 137.75583707 296.64797947 136.96711773 296.6497401 C134.41832962 296.65301763 131.86980852 296.64206016 129.32104492 296.63110352 C127.48752346 296.63053903 125.65400155 296.6308567 123.82048035 296.63198853 C118.85407131 296.63256156 113.88775919 296.62081512 108.92137265 296.60684061 C103.72704134 296.59432513 98.53270772 296.5931621 93.33836365 296.59078979 C83.50710286 296.58457744 73.67588662 296.5681699 63.84464544 296.54809082 C52.65002278 296.52572424 41.45539797 296.51473647 30.26075852 296.50469995 C7.23712813 296.48380347 -15.78646274 296.44863221 -38.81005859 296.40405273 C-38.8558515 262.03345596 -38.89108566 227.66286615 -38.91218925 193.29224545 C-38.91469062 189.23307895 -38.91727927 185.17391251 -38.91992188 181.11474609 C-38.9204465 180.30665028 -38.92097112 179.49855448 -38.92151164 178.66597091 C-38.93021064 165.58702537 -38.94597784 152.50809743 -38.96436419 139.42916233 C-38.98307727 126.00570267 -38.9941783 112.58225221 -38.99823558 99.15878004 C-39.00097772 90.87797715 -39.00963387 82.59722403 -39.02589153 74.31643646 C-39.03647579 68.63546937 -39.03965595 62.95452795 -39.03706135 57.27355171 C-39.0357823 53.99754186 -39.03882086 50.72163703 -39.04846954 47.44563866 C-39.05843206 43.88854047 -39.05602251 40.33165458 -39.05056763 36.77455139 C-39.05639331 35.74631998 -39.06221899 34.71808856 -39.06822121 33.65869862 C-39.01779606 21.47794424 -36.63812693 14.23212108 -27.99755859 5.59155273 C-19.36185997 -0.3349071 -10.11572886 -0.03291733 0 0 Z " fill="#FEFEFE" transform="translate(214.81005859375,107.595947265625)"/>
<path d="M0 0 C168.96 0 337.92 0 512 0 C512 168.96 512 337.92 512 512 C343.04 512 174.08 512 0 512 C0 343.04 0 174.08 0 0 Z M78.6875 33.25 C77.69907104 33.70669067 77.69907104 33.70669067 76.69067383 34.17260742 C55.24278622 44.32800576 39.35615287 61.62757118 31.28417969 83.98242188 C28.7638756 91.67109147 26.87954371 99.37400529 26.86857224 107.49092007 C26.86473109 108.56301832 26.86088995 109.63511657 26.8569324 110.73970264 C26.85779888 111.90651492 26.85866537 113.07332721 26.85955811 114.27549744 C26.85658698 115.52369107 26.85361586 116.77188471 26.8505547 118.0579024 C26.84250816 121.5156744 26.84069644 124.97342561 26.83995724 128.43120587 C26.83810252 132.16353415 26.83055294 135.89585175 26.82382202 139.62817383 C26.81025347 147.78765489 26.8042159 155.94713104 26.79981136 164.1066215 C26.79704567 169.20610263 26.79280765 174.30558187 26.78830719 179.40506172 C26.77611499 193.53640467 26.76581653 207.66774611 26.7624321 221.7990942 C26.76221253 222.7031667 26.76199297 223.60723919 26.76176675 224.53870783 C26.76154847 225.44489637 26.76133019 226.35108491 26.7611053 227.28473371 C26.76066184 229.12089344 26.76021528 230.95705317 26.75976562 232.79321289 C26.7595442 233.70400396 26.75932277 234.61479503 26.75909463 235.55318583 C26.7551505 250.2960739 26.73770804 265.03891242 26.7144061 279.78178137 C26.69065088 294.934382 26.6782283 310.08695781 26.67706418 325.23957735 C26.67614961 333.74050982 26.67045257 342.24137778 26.65224457 350.7422924 C26.63678699 357.98444677 26.63175619 365.22651669 26.63998267 372.46868443 C26.64386965 376.15865859 26.64305618 379.84846301 26.62892532 383.53841591 C26.5197305 413.83458674 30.85854196 438.59634132 52.43701172 461.42822266 C67.66268253 476.73951111 89.56794184 485.06707161 110.89961916 485.1430676 C112.06809167 485.14220112 113.23656418 485.14133463 114.44044495 485.14044189 C116.32120072 485.14489858 116.32120072 485.14489858 118.23995155 485.1494453 C121.70879638 485.15748161 125.17762049 485.15930298 128.64647353 485.16004276 C132.39239847 485.16189923 136.1383128 485.16944956 139.88423157 485.17617798 C148.07044493 485.18973824 156.25665338 485.19578252 164.4428761 485.20018864 C169.55893828 485.20295517 174.67499858 485.20719329 179.79105949 485.21169281 C193.96876818 485.22388285 208.14647537 485.23418244 222.32418919 485.2375679 C223.23094574 485.23778747 224.13770228 485.23800703 225.07193631 485.23823325 C226.43524258 485.23856067 226.43524258 485.23856067 227.8260904 485.2388947 C229.66767029 485.23933816 231.50925018 485.23978472 233.35083008 485.24023438 C234.26430857 485.2404558 235.17778706 485.24067723 236.11894672 485.24090537 C250.91094564 485.24485095 265.70289521 485.26229883 280.49487508 485.2855939 C295.69835309 485.3093428 310.90180638 485.32177137 326.10530323 485.32293582 C334.63469344 485.32385063 343.16401936 485.32955394 351.6933918 485.34775543 C358.95824108 485.36320431 366.2230062 485.36824879 373.48786879 485.36001733 C377.18987739 485.3561276 380.89171677 485.35695763 384.59370422 485.37107468 C388.61947968 485.38628507 392.6448788 485.37789757 396.67066956 485.36749268 C397.82352701 485.37554908 398.97638447 485.38360548 400.164177 485.39190602 C423.7024417 485.25043637 445.40052359 475.50355649 462 459 C478.20728689 441.7304901 485.15087251 419.9581678 485.14717102 396.6177063 C485.15268605 394.7462509 485.15268605 394.7462509 485.1583125 392.83698833 C485.16828396 389.38533941 485.17204143 385.93370788 485.17470181 382.4820466 C485.17861939 378.75446753 485.1881967 375.02690202 485.19691467 371.29933167 C485.21663884 362.30246255 485.22674045 353.30559238 485.23564246 344.30870706 C485.24003227 340.06511666 485.2453973 335.8215275 485.25063133 331.57793808 C485.26764006 317.45942761 485.28213214 303.3409179 485.28938007 289.22239876 C485.29128976 285.56200281 485.29321013 281.90160686 485.29516602 278.24121094 C485.29564976 277.33150999 485.2961335 276.42180904 485.2966319 275.4845414 C485.30492444 260.76245151 485.33024983 246.04044307 485.36274669 231.31838872 C485.39588492 216.18156729 485.41383496 201.04478717 485.41702431 185.9079293 C485.41918323 177.41810226 485.42784078 168.92839398 485.45348549 160.43860245 C485.47528517 153.20529717 485.48319769 145.97213953 485.47351871 138.73880513 C485.46900056 135.05460019 485.47071326 131.37069923 485.49028015 127.68653679 C485.63300646 99.23052644 481.53444396 73.65022696 461.265625 52.14453125 C443.01315821 34.86762734 421.55459358 26.84080659 396.52868652 26.85955811 C395.28357316 26.85658698 394.03845979 26.85361586 392.75561571 26.8505547 C389.31568339 26.8434032 385.87580105 26.84069764 382.43586493 26.83995724 C378.71923107 26.83809884 375.00260787 26.83054754 371.28598022 26.82382202 C363.1658054 26.81026941 355.04563553 26.80421864 346.92545128 26.79981136 C341.8490679 26.79704345 336.77268642 26.79280508 331.69630432 26.78830719 C317.62407298 26.77611799 303.55184314 26.76581834 289.47960663 26.7624321 C288.57982355 26.76221253 287.68004046 26.76199297 286.75299123 26.76176675 C285.40019833 26.76143933 285.40019833 26.76143933 284.02007627 26.7611053 C282.19274616 26.76066184 280.36541605 26.76021528 278.53808594 26.75976562 C277.6316788 26.7595442 276.72527166 26.75932277 275.79139763 26.75909463 C261.11721071 26.75514989 246.44307354 26.73770421 231.76890582 26.7144061 C216.68064775 26.69064519 201.59241459 26.67822808 186.50413752 26.67706418 C178.04176782 26.67615002 169.57946296 26.67046344 161.11711121 26.65224457 C153.90870378 26.63677938 146.70038122 26.63176069 139.49196035 26.63998267 C135.82007545 26.64386674 132.14836112 26.64307067 128.47649765 26.62892532 C102.94943116 26.16771082 102.94943116 26.16771082 78.6875 33.25 Z " fill="#FEFEFE" transform="translate(0,0)"/>
<path d="M0 0 C12.87 0 25.74 0 39 0 C39.06776897 16.69862244 39.12301199 33.39712718 39.15543652 50.09584904 C39.17089318 57.84967542 39.19195967 65.60341017 39.22631836 73.35717773 C39.25625757 80.1168289 39.27558373 86.87641369 39.28226548 93.63612932 C39.28617011 97.21404167 39.29532127 100.79176416 39.31719017 104.36961555 C39.34142836 108.3676705 39.3419671 112.36539717 39.34057617 116.36352539 C39.351362 117.54460373 39.36214783 118.72568207 39.3732605 119.94255066 C39.34701918 126.91043707 39.05586204 132.43000003 34.3515625 137.92578125 C28.80737886 142.37868892 24.57032695 144.50499207 17.33984375 144.3125 C11.98936401 143.59791172 7.71599982 141.1149998 4.125 137.125 C-0.57917583 130.20709437 -0.27658736 123.66578957 -0.22705078 115.56884766 C-0.22734283 114.31951447 -0.22763489 113.07018127 -0.22793579 111.7829895 C-0.2267839 108.37013477 -0.21677611 104.9575241 -0.20278788 101.54471254 C-0.19025755 97.973287 -0.18910821 94.40185795 -0.18673706 90.83041382 C-0.18052905 84.0732159 -0.16412744 77.31608294 -0.14403808 70.55891359 C-0.12165793 62.86364586 -0.11068034 55.16837497 -0.10064721 47.47308278 C-0.07976058 31.64867786 -0.04309286 15.8243624 0 0 Z " fill="#FFFFFF" transform="translate(127,261)"/>
<path d="M0 0 C4.7820844 3.50959843 7.95342231 7.70992454 9.8203125 13.3359375 C11.01476938 21.52111041 9.0507013 27.37090451 4.8203125 34.3359375 C5.56410156 34.6040625 6.30789062 34.8721875 7.07421875 35.1484375 C15.03668693 38.59166698 20.33112695 45.58614784 23.8203125 53.3359375 C24.92611093 56.50348159 25.47657665 59.01746971 24.8203125 62.3359375 C19.33452348 71.31937724 6.81598805 76.62588348 -2.9921875 79.0234375 C-17.63930275 80.45942919 -29.57343627 77.75098179 -41.3203125 68.68359375 C-46.97368736 63.98393863 -46.97368736 63.98393863 -47.5546875 59.3359375 C-47.43249493 52.00438314 -42.59087321 45.06212028 -37.796875 39.80859375 C-34.8732115 37.14622385 -31.25338675 34.3359375 -27.1796875 34.3359375 C-27.52902344 33.80484375 -27.87835938 33.27375 -28.23828125 32.7265625 C-28.92083984 31.66695312 -28.92083984 31.66695312 -29.6171875 30.5859375 C-30.06964844 29.88984375 -30.52210938 29.19375 -30.98828125 28.4765625 C-33.73607882 23.53953604 -33.92562221 18.33392985 -32.56640625 12.87109375 C-30.30297394 6.24033389 -27.20665374 2.81818466 -21.1796875 -0.6640625 C-20.3959375 -1.1178125 -19.6121875 -1.5715625 -18.8046875 -2.0390625 C-12.16268683 -3.62049123 -5.99427032 -3.42183042 0 0 Z " fill="#882FD8" transform="translate(239.1796875,123.6640625)"/>
<path d="M0 0 C1.03456875 -0.00339833 1.03456875 -0.00339833 2.09003788 -0.00686532 C4.41234206 -0.01321994 6.73458809 -0.01237503 9.05690002 -0.0115509 C10.71733171 -0.01454147 12.37776269 -0.01794376 14.03819275 -0.02172852 C18.55673039 -0.03058283 23.07524911 -0.03290722 27.59379458 -0.0335443 C31.36137184 -0.03449223 35.12894465 -0.03816917 38.8965202 -0.0417164 C47.78250195 -0.04986629 56.66847356 -0.05230013 65.55445862 -0.05158997 C74.73167471 -0.05098893 83.90883206 -0.06154466 93.08603328 -0.07733363 C100.95612187 -0.09039304 108.82619121 -0.09577454 116.69629055 -0.09513456 C121.40075274 -0.09487911 126.10516275 -0.09775595 130.80961418 -0.10831261 C135.23284391 -0.11796681 139.6559713 -0.11809127 144.07920456 -0.11079597 C145.70501797 -0.10974681 147.33083766 -0.1121326 148.95664024 -0.11815643 C151.17141062 -0.12583263 153.38582368 -0.12126092 155.60058594 -0.11352539 C156.84148704 -0.11407016 158.08238813 -0.11461493 159.3608923 -0.1151762 C162.36378479 0.13371277 162.36378479 0.13371277 165.36378479 2.13371277 C165.86378479 5.07121277 165.86378479 5.07121277 165.36378479 8.13371277 C161.47144923 11.22241869 158.36723161 11.51011847 153.48742676 11.5146637 C152.46844743 11.52168365 152.46844743 11.52168365 151.42888266 11.52884543 C149.15950577 11.54078258 146.8907342 11.5313437 144.62135315 11.52189636 C142.99165495 11.52596261 141.36195951 11.53130479 139.73226929 11.53782654 C135.31088139 11.55149858 130.88970358 11.54620226 126.46831203 11.53668928 C121.84171276 11.52909341 117.21513147 11.53613798 112.58853149 11.54084778 C104.82014231 11.54630499 97.05183871 11.53911404 89.28346252 11.52482605 C80.29985925 11.50849385 71.31646018 11.5137923 62.33286184 11.53030527 C54.62064265 11.54391426 46.90848497 11.54584284 39.19625765 11.53798926 C34.58960501 11.53331025 29.98304839 11.53269426 25.3764019 11.54259872 C21.04663329 11.55125778 16.71712832 11.545266 12.38738823 11.52791595 C10.79747455 11.52394567 9.20753872 11.52509442 7.61763382 11.53170395 C5.44917501 11.53988829 3.28156382 11.52963667 1.11315918 11.5146637 C-0.70778055 11.51296708 -0.70778055 11.51296708 -2.56550694 11.51123619 C-5.86551195 11.10552224 -7.23922836 10.37581761 -9.63621521 8.13371277 C-9.38060198 5.79059147 -9.04350749 3.45527874 -8.63621521 1.13371277 C-5.7418306 -0.31347954 -3.23501117 0.00437023 0 0 Z " fill="#7D25CA" transform="translate(202.63621520996094,291.8662872314453)"/>
<path d="M0 0 C0.68325425 -0.00326884 1.36650849 -0.00653768 2.07046741 -0.00990558 C4.35912966 -0.0171865 6.64715262 -0.0030296 8.93577576 0.01104736 C10.57679859 0.0102565 12.21782125 0.00815926 13.85884094 0.00485229 C18.31536422 -0.00028402 22.7716568 0.01325791 27.22814298 0.0303793 C31.88857034 0.04540717 36.5489946 0.04424107 41.20944214 0.04504395 C49.03508954 0.04873704 56.86064926 0.06370707 64.68626404 0.08624268 C74.73677706 0.11512606 84.78721949 0.12546683 94.83776951 0.12992477 C103.47190998 0.1339027 112.10603506 0.1464043 120.74016452 0.16027164 C123.51896107 0.16437262 126.29775708 0.16729723 129.07655525 0.17006683 C133.4390625 0.17495646 137.80152685 0.1851542 142.16401291 0.19950485 C143.76724676 0.20403126 145.37048638 0.20686733 146.97372627 0.20791245 C149.15765762 0.20965577 151.34148134 0.21753235 153.52539062 0.22705078 C154.7489454 0.23002544 155.97250017 0.23300011 157.23313236 0.23606491 C160.19920349 0.36749268 160.19920349 0.36749268 163.19920349 1.36749268 C163.52920349 3.67749268 163.85920349 5.98749268 164.19920349 8.36749268 C160.12630433 11.27170246 157.28753532 11.74381931 152.32284546 11.7484436 C151.30386613 11.75546356 151.30386613 11.75546356 150.26430136 11.76262534 C147.99492447 11.77456248 145.7261529 11.7651236 143.45677185 11.75567627 C141.82707365 11.75974252 140.19737821 11.7650847 138.56768799 11.77160645 C134.14630009 11.78527848 129.72512228 11.77998216 125.30373073 11.77046919 C120.67713146 11.76287331 116.05055017 11.76991788 111.4239502 11.77462769 C103.65556101 11.7800849 95.88725741 11.77289395 88.11888123 11.75860596 C79.13527795 11.74227376 70.15187888 11.7475722 61.16828054 11.76408517 C53.45606135 11.77769417 45.74390367 11.77962275 38.03167635 11.77176917 C33.42502371 11.76709016 28.81846709 11.76647417 24.2118206 11.77637863 C19.88205199 11.78503769 15.55254703 11.7790459 11.22280693 11.76169586 C9.63289325 11.75772558 8.04295742 11.75887432 6.45305252 11.76548386 C4.28459371 11.7736682 2.11698252 11.76341657 -0.05142212 11.7484436 C-1.87236185 11.74674699 -1.87236185 11.74674699 -3.73008823 11.7450161 C-7.06027801 11.33559113 -8.46322703 10.7385066 -10.80079651 8.36749268 C-11.30079651 5.86749268 -11.30079651 5.86749268 -10.80079651 3.36749268 C-7.46426667 -0.02529303 -4.62421133 -0.0055409 0 0 Z " fill="#7D25CA" transform="translate(203.80079650878906,326.63250732421875)"/>
<path d="M0 0 C0.69858517 -0.00311998 1.39717034 -0.00623996 2.11692476 -0.00945449 C4.46926978 -0.0174631 6.82135889 -0.01109985 9.17370605 -0.00482178 C10.85546521 -0.00753037 12.53722318 -0.01109056 14.21897888 -0.01544189 C18.79532449 -0.02458382 23.37158023 -0.02101424 27.94792747 -0.01468372 C32.72895939 -0.00963304 37.50998342 -0.01431257 42.29101562 -0.01745605 C50.32109972 -0.02109843 58.35114707 -0.01628951 66.38122559 -0.0067749 C75.67548266 0.00411017 84.96965201 0.00058478 94.26390696 -0.01042771 C102.23249772 -0.01949288 110.20106202 -0.02078965 118.16965628 -0.01555037 C122.933884 -0.01242643 127.69807043 -0.01203294 132.46229553 -0.01862335 C136.94052313 -0.02438502 141.41863721 -0.02042166 145.89685249 -0.00883484 C147.54404575 -0.00618191 149.1912485 -0.00696406 150.83843803 -0.01136017 C153.07984126 -0.01679228 155.32087635 -0.01001032 157.56225586 0 C159.44711323 0.00113108 159.44711323 0.00113108 161.37004852 0.002285 C164.28112793 0.25396729 164.28112793 0.25396729 166.28112793 2.25396729 C166.53112793 5.25396729 166.53112793 5.25396729 166.28112793 8.25396729 C163.43616281 11.09893241 161.54977295 10.50554172 157.56225586 10.50793457 C156.86367069 10.51105455 156.16508552 10.51417453 155.4453311 10.51738906 C153.09298608 10.52539767 150.74089697 10.51903442 148.3885498 10.51275635 C146.70679065 10.51546494 145.02503268 10.51902513 143.34327698 10.52337646 C138.76693137 10.53251839 134.19067563 10.52894881 129.61432838 10.52261829 C124.83329647 10.51756761 120.05227244 10.52224714 115.27124023 10.52539062 C107.24115614 10.529033 99.21110879 10.52422408 91.18103027 10.51470947 C81.8867732 10.5038244 72.59260385 10.50734979 63.2983489 10.51836228 C55.32975814 10.52742746 47.36119384 10.52872422 39.39259958 10.52348495 C34.62837186 10.520361 29.86418542 10.51996751 25.09996033 10.52655792 C20.62173273 10.53231959 16.14361865 10.52835623 11.66540337 10.51676941 C10.01821011 10.51411648 8.37100735 10.51489863 6.72381783 10.51929474 C4.4824146 10.52472685 2.24137951 10.51794489 0 10.50793457 C-1.25657158 10.50718052 -2.51314316 10.50642647 -3.80779266 10.50564957 C-6.71887207 10.25396729 -6.71887207 10.25396729 -8.71887207 8.25396729 C-8.96887207 5.25396729 -8.96887207 5.25396729 -8.71887207 2.25396729 C-5.87390695 -0.59099784 -3.98751709 0.00239285 0 0 Z " fill="#7D25CA" transform="translate(201.7188720703125,362.74603271484375)"/>
<path d="M0 0 C0.69858517 -0.00311998 1.39717034 -0.00623996 2.11692476 -0.00945449 C4.46926978 -0.0174631 6.82135889 -0.01109985 9.17370605 -0.00482178 C10.85546521 -0.00753037 12.53722318 -0.01109056 14.21897888 -0.01544189 C18.79532449 -0.02458382 23.37158023 -0.02101424 27.94792747 -0.01468372 C32.72895939 -0.00963304 37.50998342 -0.01431257 42.29101562 -0.01745605 C50.32109972 -0.02109843 58.35114707 -0.01628951 66.38122559 -0.0067749 C75.67548266 0.00411017 84.96965201 0.00058478 94.26390696 -0.01042771 C102.23249772 -0.01949288 110.20106202 -0.02078965 118.16965628 -0.01555037 C122.933884 -0.01242643 127.69807043 -0.01203294 132.46229553 -0.01862335 C136.94052313 -0.02438502 141.41863721 -0.02042166 145.89685249 -0.00883484 C147.54404575 -0.00618191 149.1912485 -0.00696406 150.83843803 -0.01136017 C153.07984126 -0.01679228 155.32087635 -0.01001032 157.56225586 0 C159.44711323 0.00113108 159.44711323 0.00113108 161.37004852 0.002285 C164.28112793 0.25396729 164.28112793 0.25396729 166.28112793 2.25396729 C166.53112793 5.25396729 166.53112793 5.25396729 166.28112793 8.25396729 C163.43616281 11.09893241 161.54977295 10.50554172 157.56225586 10.50793457 C156.86367069 10.51105455 156.16508552 10.51417453 155.4453311 10.51738906 C153.09298608 10.52539767 150.74089697 10.51903442 148.3885498 10.51275635 C146.70679065 10.51546494 145.02503268 10.51902513 143.34327698 10.52337646 C138.76693137 10.53251839 134.19067563 10.52894881 129.61432838 10.52261829 C124.83329647 10.51756761 120.05227244 10.52224714 115.27124023 10.52539062 C107.24115614 10.529033 99.21110879 10.52422408 91.18103027 10.51470947 C81.8867732 10.5038244 72.59260385 10.50734979 63.2983489 10.51836228 C55.32975814 10.52742746 47.36119384 10.52872422 39.39259958 10.52348495 C34.62837186 10.520361 29.86418542 10.51996751 25.09996033 10.52655792 C20.62173273 10.53231959 16.14361865 10.52835623 11.66540337 10.51676941 C10.01821011 10.51411648 8.37100735 10.51489863 6.72381783 10.51929474 C4.4824146 10.52472685 2.24137951 10.51794489 0 10.50793457 C-1.25657158 10.50718052 -2.51314316 10.50642647 -3.80779266 10.50564957 C-6.71887207 10.25396729 -6.71887207 10.25396729 -8.71887207 8.25396729 C-8.96887207 5.25396729 -8.96887207 5.25396729 -8.71887207 2.25396729 C-5.87390695 -0.59099784 -3.98751709 0.00239285 0 0 Z " fill="#7D25CA" transform="translate(201.7188720703125,221.74603271484375)"/>
<path d="M0 0 C0.69056693 -0.00311998 1.38113385 -0.00623996 2.09262705 -0.00945449 C4.41189457 -0.01744638 6.73090132 -0.01110631 9.0501709 -0.00482178 C10.71075087 -0.00753111 12.37132964 -0.01109172 14.03190613 -0.01544189 C18.54627861 -0.024575 23.06055989 -0.02101785 27.57493401 -0.01468372 C32.29409917 -0.0096285 37.01325641 -0.01431384 41.73242188 -0.01745605 C49.65817673 -0.02109709 57.58389435 -0.01629299 65.50964355 -0.0067749 C74.67950185 0.00410991 83.84927122 0.00058443 93.01912737 -0.01042771 C100.88499479 -0.01949666 108.75083541 -0.02078779 116.61670637 -0.01555037 C121.31779406 -0.01242851 126.01883991 -0.01202725 130.71992493 -0.01862335 C135.13907355 -0.02439049 139.55810725 -0.02041154 143.97724342 -0.00883484 C145.60144166 -0.00618486 147.22564954 -0.00695908 148.84984398 -0.01136017 C151.06238115 -0.01680382 153.27454719 -0.00999614 155.48706055 0 C156.72666283 0.00075405 157.96626511 0.0015081 159.24343109 0.002285 C162.24353027 0.25396729 162.24353027 0.25396729 165.24353027 2.25396729 C165.55603027 5.25396729 165.55603027 5.25396729 165.24353027 8.25396729 C162.39856515 11.09893241 160.51217529 10.50554172 156.5246582 10.50793457 C155.82607303 10.51105455 155.12748786 10.51417453 154.40773344 10.51738906 C152.05538842 10.52539767 149.70329932 10.51903442 147.35095215 10.51275635 C145.66919299 10.51546494 143.98743503 10.51902513 142.30567932 10.52337646 C137.72933372 10.53251839 133.15307797 10.52894881 128.57673073 10.52261829 C123.79569881 10.51756761 119.01467478 10.52224714 114.23364258 10.52539062 C106.20355849 10.529033 98.17351114 10.52422408 90.14343262 10.51470947 C80.84917554 10.5038244 71.5550062 10.50734979 62.26075125 10.51836228 C54.29216048 10.52742746 46.32359618 10.52872422 38.35500193 10.52348495 C33.5907742 10.520361 28.82658777 10.51996751 24.06236267 10.52655792 C19.58413507 10.53231959 15.106021 10.52835623 10.62780571 10.51676941 C8.98061245 10.51411648 7.3334097 10.51489863 5.68622017 10.51929474 C3.44481694 10.52472685 1.20378185 10.51794489 -1.03759766 10.50793457 C-2.29416924 10.50718052 -3.55074081 10.50642647 -4.84539032 10.50564957 C-7.75646973 10.25396729 -7.75646973 10.25396729 -9.75646973 8.25396729 C-10.06896973 5.25396729 -10.06896973 5.25396729 -9.75646973 2.25396729 C-6.09753359 -0.18532347 -4.3621093 0.00265348 0 0 Z " fill="#7D25CA" transform="translate(202.7564697265625,256.74603271484375)"/>
<path d="M0 0 C4.53127136 3.38003371 9.19718365 7.64059412 10.64453125 13.21875 C10.73605469 13.94964844 10.82757813 14.68054688 10.921875 15.43359375 C2.69143579 22.35550691 -5.65432949 25.64473697 -16.51171875 25.3359375 C-25.25992219 24.27461247 -34.31552431 21.50587641 -40.078125 14.43359375 C-36.85626684 6.95888282 -32.98716455 2.03521189 -25.453125 -1.37890625 C-17.05011673 -4.33552027 -7.94070062 -4.4789489 0 0 Z " fill="#FEFEFE" transform="translate(242.078125,167.56640625)"/>
<path d="M0 0 C1.12061577 0.00607269 1.12061577 0.00607269 2.26387024 0.01226807 C3.05098892 0.00876343 3.8381076 0.00525879 4.64907837 0.00164795 C7.25839482 -0.0071753 9.86744151 -0.00131819 12.47676086 0.00543213 C14.2851517 0.00408565 16.09354217 0.00214526 17.90193176 -0.00036621 C21.69497621 -0.00331828 25.48792656 0.0009828 29.28096008 0.01031494 C34.15041849 0.02170953 39.01965644 0.0151505 43.88910675 0.00317001 C47.62421845 -0.00404637 51.35927762 -0.00176168 55.09439087 0.0034256 C56.89019802 0.00476271 58.68600989 0.00311224 60.48181152 -0.00153351 C62.9887206 -0.00659513 65.49526935 0.0011062 68.00215149 0.01226807 C68.74922867 0.0082196 69.49630585 0.00417114 70.26602173 0 C75.40448217 0.04252844 75.40448217 0.04252844 77.63301086 2.27105713 C77.94551086 5.27105713 77.94551086 5.27105713 77.63301086 8.27105713 C73.97311619 10.71098691 71.22906849 10.56682154 66.99629211 10.56158447 C65.83243484 10.57166031 65.83243484 10.57166031 64.64506531 10.5819397 C62.07848217 10.60094884 59.51216002 10.60484503 56.94551086 10.60699463 C55.16336458 10.61341943 53.38121936 10.62014755 51.59907532 10.62716675 C47.86329196 10.63914602 44.12760114 10.6428468 40.39179993 10.6416626 C35.59965041 10.64145912 30.80809201 10.66878806 26.01608276 10.70320702 C22.33582318 10.72541681 18.65570733 10.729502 14.97538757 10.72844315 C13.2082973 10.73080702 11.44120353 10.73967456 9.67417908 10.75510788 C7.20560445 10.77465335 4.73832404 10.76897641 2.26972961 10.75689697 C1.53716949 10.76813599 0.80460937 10.779375 0.04985046 10.79095459 C-3.24100831 10.74992905 -4.92399219 10.69368366 -7.35600281 8.37350464 C-8.36698914 6.27105713 -8.36698914 6.27105713 -8.17948914 4.14605713 C-6.37163941 -0.02590378 -4.21918433 0.03492005 0 0 Z " fill="#741EBE" transform="translate(289.3669891357422,168.72894287109375)"/>
<path d="M0 0 C2.70552388 2.19823815 4.44778333 3.89556667 6 7 C6.40710593 11.23390162 6.25575965 13.51588352 4.25 17.3125 C1.67713423 20.38564523 -0.1889142 21.65184302 -4.11328125 22.40625 C-8.63919291 22.59918407 -11.40454101 22.19628051 -15 19.3125 C-16.93901372 17.38698289 -17.96235711 16.08635723 -19.0625 13.5625 C-18.94193224 8.61922171 -18.15713263 5.12746257 -14.5625 1.625 C-9.67313727 -1.47557149 -5.48338881 -1.43337707 0 0 Z " fill="#FEFEFE" transform="translate(234,132)"/>
<path d="M0 0 C2.02184799 -0.00438156 4.04152496 -0.0407508 6.06298828 -0.07861328 C7.34044922 -0.08248047 8.61791016 -0.08634766 9.93408203 -0.09033203 C11.10261719 -0.0985498 12.27115234 -0.10676758 13.47509766 -0.11523438 C17.13742079 0.46762095 18.34092019 1.42258898 20.52783203 4.37060547 C20.46533203 6.99560547 20.46533203 6.99560547 19.52783203 9.37060547 C14.75170458 12.55469043 9.28903574 11.74251482 3.70385742 11.74121094 C1.60073848 11.74558383 -0.50027973 11.78191026 -2.60302734 11.81982422 C-3.94351498 11.82569296 -5.28401256 11.82966197 -6.62451172 11.83154297 C-7.84130615 11.83976074 -9.05810059 11.84797852 -10.31176758 11.85644531 C-14.04895346 11.28193779 -15.25357643 10.38408607 -17.47216797 7.37060547 C-17.47216797 4.74560547 -17.47216797 4.74560547 -16.47216797 2.37060547 C-11.66775716 -0.91146097 -5.57597304 -0.00135635 0 0 Z " fill="#7C21CB" transform="translate(298.47216796875,136.62939453125)"/>
</svg>
