<?xml version="1.0" encoding="UTF-8"?>
<svg version="1.1" xmlns="http://www.w3.org/2000/svg" width="512" height="512">
<path d="M0 0 C168.96 0 337.92 0 512 0 C512 168.96 512 337.92 512 512 C343.04 512 174.08 512 0 512 C0 343.04 0 174.08 0 0 Z " fill="#3B0764" transform="translate(0,0)"/>
<path d="M0 0 C68.64 0 137.28 0 208 0 C208 168.96 208 337.92 208 512 C159.16 512 110.32 512 60 512 C60 511.67 60 511.34 60 511 C60.71285156 510.89042969 61.42570312 510.78085937 62.16015625 510.66796875 C70.65327579 509.26197453 76.9544712 507.13736475 84 502 C84.83337891 501.40445313 84.83337891 501.40445313 85.68359375 500.796875 C93.64687579 494.62488803 98.58690216 485.67792964 101 476 C101.40283518 472.38483575 101.41431996 468.80748235 101.39440918 465.17254639 C101.40050028 464.11638886 101.40659139 463.06023133 101.41286707 461.97206903 C101.42944838 458.45099501 101.42472807 454.93028455 101.41992188 451.40917969 C101.42726507 448.87724941 101.43585202 446.34532248 101.44558716 443.81340027 C101.46548324 437.66001518 101.47118512 431.50676272 101.46939927 425.35334983 C101.46808874 420.34794357 101.47191062 415.34256659 101.47932434 410.33716583 C101.48142367 408.89223806 101.48352127 407.44731029 101.48561716 406.00238252 C101.48666069 405.28306512 101.48770422 404.56374772 101.48877937 403.82263282 C101.50766024 390.23407133 101.50663834 376.64556388 101.49981004 363.05699471 C101.49423784 350.64730019 101.51504996 338.23781233 101.54817051 325.8281661 C101.58197006 313.06431058 101.59706795 300.30055387 101.59245348 287.5366528 C101.59021489 280.3794079 101.59536192 273.2223539 101.62034607 266.0651474 C101.64365387 259.33118717 101.64070067 252.5977257 101.62041855 245.86373329 C101.61701568 243.39874499 101.62206617 240.93372757 101.63640213 238.46877861 C101.72800584 221.54427248 100.96048573 208.5734696 89.3984375 195.37890625 C84.02785729 190.0520604 78.00646247 186.69479326 71 184 C70.2263208 183.65275879 69.4526416 183.30551758 68.65551758 182.94775391 C65.73195531 181.90433488 63.35875071 181.68530751 60.26171875 181.5859375 C58.66166992 181.52792969 58.66166992 181.52792969 57.02929688 181.46875 C55.37510742 181.42234375 55.37510742 181.42234375 53.6875 181.375 C52.00430664 181.31699219 52.00430664 181.31699219 50.28710938 181.2578125 C47.52490148 181.16377989 44.762696 181.07812659 42 181 C41.99945523 180.26469213 41.99891047 179.52938425 41.99834919 178.77179432 C41.98334493 160.83326472 41.94075131 142.89499164 41.86790943 124.95660114 C41.83333959 116.28150466 41.80791446 107.60656576 41.80444336 98.93139648 C41.80139228 91.36511072 41.78074897 83.79910619 41.73947543 76.23292893 C41.71824686 72.23113843 41.70549206 68.2297467 41.71384621 64.22789955 C41.72145139 60.45115259 41.70530563 56.67520927 41.67193985 52.89860916 C41.65993249 50.87222033 41.67221053 48.84573162 41.68556213 46.8193512 C41.51222709 32.78332368 36.90993613 21.82923632 27 12 C18.84930615 5.33496774 10.28069696 2.58021563 0 1 C0 0.67 0 0.34 0 0 Z " fill="#FEFEFE" transform="translate(304,0)"/>
<path d="M0 0 C46.86 0 93.72 0 142 0 C139.34309994 1.77126671 137.4018354 2.60675317 134.4375 3.625 C123.55733374 7.94855952 114.70746609 16.60663009 109.9676708 27.33710051 C107.35385033 34.02879817 106.42766457 39.70233299 106.50552368 46.8536377 C106.50069485 47.88841389 106.49586602 48.92319009 106.49089086 49.98932314 C106.47969889 53.42608868 106.49687956 56.86209702 106.51416016 60.29882812 C106.51201233 62.77518413 106.50813173 65.25153914 106.50265503 67.72789001 C106.49398913 73.73736288 106.50379839 79.74654384 106.52235563 85.75597274 C106.54321434 92.76494017 106.54298084 99.7738608 106.54201047 106.78285342 C106.54101103 119.29489801 106.55928313 131.80684006 106.58837891 144.31884766 C106.61655004 156.43963488 106.63072027 168.56033192 106.62939453 180.68115234 C106.62931462 181.42775283 106.62923471 182.17435332 106.62915237 182.94357806 C106.62907166 183.68893099 106.62899095 184.43428392 106.6289078 185.2022233 C106.62752532 199.03058375 106.63932417 212.85890614 106.65721423 226.68725422 C106.66322728 231.56437699 106.66537101 236.44149271 106.66627884 241.31861877 C106.66779185 247.89160782 106.68054732 254.46451493 106.70061111 261.03747749 C106.70643489 263.44524624 106.70891718 265.85302581 106.70775604 268.26080132 C106.70676856 271.55608717 106.71814511 274.85111286 106.73257446 278.1463623 C106.72792866 279.56366032 106.72792866 279.56366032 106.723189 281.00959063 C106.82535069 295.21039733 110.14682899 308.08235303 120.37890625 318.3984375 C131.1068119 327.79901858 140.57214905 330.22851034 154.45703125 330.625 C155.56872681 330.66367187 156.68042236 330.70234375 157.82580566 330.7421875 C160.55037764 330.83586067 163.27495343 330.92158311 166 331 C166.00331015 331.70622907 166.00662029 332.41245813 166.01003075 333.14008808 C166.09141143 350.36016773 166.18355269 367.58015657 166.28752708 384.80011463 C166.3375524 393.12771092 166.38399609 401.45529786 166.421875 409.78295898 C166.45491689 417.04517376 166.49481458 424.30731376 166.54279006 431.56944579 C166.56793438 435.41120561 166.58975057 439.2529166 166.60334396 443.0947361 C166.61627477 446.71858305 166.638445 450.34226151 166.66738319 453.96601486 C166.68062622 455.91406232 166.68435904 457.86216735 166.68769836 459.81025696 C166.82968605 474.87824399 169.41343709 488.34293986 180.37890625 499.3984375 C186.97309134 505.17674816 193.67611468 508.36652913 202 511 C202 511.33 202 511.66 202 512 C135.34 512 68.68 512 0 512 C0 343.04 0 174.08 0 0 Z " fill="#FEFEFE" transform="translate(0,0)"/>
<path d="M0 0 C1.000811 0.00015106 2.00162201 0.00030212 3.03276062 0.00045776 C4.65006828 0.01594162 4.65006828 0.01594162 6.30004883 0.03173828 C7.95838493 0.03598312 7.95838493 0.03598312 9.65022278 0.04031372 C13.18595136 0.05152076 16.72142788 0.07662651 20.25708008 0.10205078 C22.65225872 0.11207989 25.04744132 0.12120586 27.44262695 0.12939453 C33.31845355 0.14976135 39.19373421 0.1889097 45.06958008 0.22705078 C45.06958008 10.12705078 45.06958008 20.02705078 45.06958008 30.22705078 C35.16958008 30.22705078 25.26958008 30.22705078 15.06958008 30.22705078 C15.06958008 99.85705078 15.06958008 169.48705078 15.06958008 241.22705078 C54.66958008 241.22705078 94.26958008 241.22705078 135.06958008 241.22705078 C135.06958008 161.69705078 135.06958008 82.16705078 135.06958008 0.22705078 C154.06958008 0.22705078 154.06958008 0.22705078 161.06958008 4.22705078 C165.72183107 9.28329039 165.63874696 13.86984285 165.57751465 20.3924408 C165.58375461 21.41351647 165.58999457 22.43459215 165.59642363 23.48660952 C165.61237341 26.90675413 165.59974104 30.32618803 165.5871582 33.74633789 C165.59257844 36.19889237 165.59970055 38.6514436 165.60839844 41.10398865 C165.62475191 47.07335181 165.62234787 53.04243625 165.61074787 59.01178854 C165.60170918 63.86429124 165.60049143 68.71673758 165.60484314 73.56924629 C165.60545607 74.2602526 165.606069 74.95125891 165.60670051 75.66320481 C165.60797943 77.0670455 165.60927629 78.47088618 165.61059088 79.87472684 C165.6219941 93.03534805 165.6088875 106.19585777 165.58738941 119.3564607 C165.56952259 130.64337666 165.57261954 141.93012803 165.59106445 153.21704102 C165.61248261 166.32945975 165.62089131 179.44178075 165.6086154 192.55421454 C165.60734123 193.95315618 165.60608375 195.35209783 165.60484314 196.75103951 C165.60391749 197.78344849 165.60391749 197.78344849 165.60297313 198.83671422 C165.59952276 203.68161713 165.60534189 208.52645795 165.61476135 213.37135124 C165.62716771 219.89589159 165.6183029 226.42016949 165.59518433 232.94469643 C165.58989436 235.33962869 165.59141588 237.7345871 165.60023499 240.12950897 C165.6111622 243.39825171 165.59745962 246.66599791 165.57751465 249.93467712 C165.58643754 250.88293159 165.59536042 251.83118605 165.6045537 252.8081755 C165.53360983 258.80067057 164.56730908 262.31878265 161.06958008 267.22705078 C154.65259129 272.75086661 146.80312679 271.79152472 138.77441406 271.74462891 C137.21662747 271.750054 135.65884602 271.75717884 134.10107422 271.76586914 C129.8841495 271.78405801 125.66761754 271.77705387 121.45068622 271.7643528 C117.03189736 271.75420386 112.61314142 271.76362356 108.1943512 271.76989746 C100.77582785 271.7771676 93.35746397 271.76760204 85.93896484 271.74853516 C77.36769448 271.72675956 68.79680462 271.73382523 60.22554344 271.75584078 C52.85888206 271.7740033 45.49233511 271.77654919 38.12565857 271.7660861 C33.72909405 271.75985687 29.33270829 271.75899995 24.93615532 271.77223206 C20.80325665 271.78380269 16.67084786 271.77574303 12.53800201 271.75265503 C11.02310817 271.74737471 9.50817295 271.74887017 7.99329567 271.75770569 C5.92173027 271.76867248 3.85172474 271.75488747 1.78025818 271.73498535 C0.62235999 271.73347725 -0.5355382 271.73196915 -1.72852421 271.73041534 C-7.187895 270.87215698 -9.99292442 268.47100479 -13.2724123 264.11948299 C-15.61464733 259.54129478 -15.49520268 254.99628829 -15.45854187 249.94813538 C-15.47107686 248.41629857 -15.47107686 248.41629857 -15.48386508 246.85351557 C-15.50680531 243.43884827 -15.50123274 240.02483826 -15.49560547 236.61010742 C-15.50593904 234.15902485 -15.51792811 231.70794878 -15.53144836 229.25688171 C-15.55927789 223.29469754 -15.56809924 217.33277084 -15.56687286 211.3705445 C-15.56603955 206.52331344 -15.57191105 201.67613579 -15.58249855 196.82891655 C-15.61516085 181.57911334 -15.62416544 166.32947466 -15.61540882 151.07964157 C-15.60942615 139.05758212 -15.63983056 127.03593037 -15.68703153 115.01397259 C-15.73515516 102.66038329 -15.75720479 90.30699025 -15.75172073 77.95330518 C-15.74914621 71.02135108 -15.75709514 64.08978764 -15.79279137 57.15791512 C-15.82609351 50.6398019 -15.82296559 44.12240686 -15.79534721 37.60421944 C-15.79088645 35.21291773 -15.79836513 32.82155929 -15.81869125 30.43033981 C-15.84457791 27.16353139 -15.82723517 23.89967617 -15.79911804 20.63294983 C-15.81677945 19.68829032 -15.83444086 18.74363082 -15.85263747 17.77034527 C-15.73575587 11.48270006 -14.10013408 8.31488849 -9.7240985 3.80653089 C-6.35997664 0.84414754 -4.40075206 -0.02217004 0 0 Z " fill="#FEFEFE" transform="translate(210.930419921875,210.77294921875)"/>
<path d="M0 0 C0.64690914 -0.00453111 1.29381828 -0.00906223 1.96033072 -0.01373065 C4.13205297 -0.02640955 6.30352555 -0.02475205 8.47528076 -0.02310181 C10.03085148 -0.02908502 11.58641922 -0.03589009 13.14198303 -0.04345703 C17.37149518 -0.06114857 21.60092643 -0.06581382 25.83047199 -0.0670886 C29.36162286 -0.06898686 32.89275485 -0.07634383 36.42389846 -0.08343279 C44.75727909 -0.09972748 53.0906165 -0.10460089 61.42401123 -0.10317993 C70.01673878 -0.10197922 78.60921486 -0.12306438 87.20187879 -0.15466726 C94.58034357 -0.18083621 101.95872629 -0.19154692 109.33723712 -0.19026911 C113.74342095 -0.18975952 118.14938153 -0.19544068 122.5555191 -0.21662521 C126.7022803 -0.23601728 130.84860557 -0.23612563 134.99538231 -0.22159195 C136.51470515 -0.21950371 138.03405534 -0.22420573 139.55333138 -0.23631287 C154.15924492 -0.34513747 154.15924492 -0.34513747 159.65008545 4.26742554 C164.15766891 9.55023478 164.22021069 13.80813052 164.15802002 20.43281555 C164.16425998 21.45389123 164.17049994 22.47496691 164.176929 23.52698427 C164.19287878 26.94712889 164.18024641 30.36656279 164.16766357 33.78671265 C164.17308381 36.23926713 164.18020592 38.69181835 164.18890381 41.1443634 C164.20525728 47.11372656 164.20285324 53.08281101 164.19125324 59.0521633 C164.18221455 63.904666 164.1809968 68.75711234 164.18534851 73.60962105 C164.18596144 74.30062736 164.18657438 74.99163367 164.18720588 75.70357956 C164.1884848 77.10742026 164.18978166 78.51126093 164.19109625 79.9151016 C164.20249947 93.07572281 164.18939287 106.23623253 164.16789478 119.39683545 C164.15002796 130.68375141 164.15312491 141.97050279 164.17156982 153.25741577 C164.19298798 166.3698345 164.20139668 179.48215551 164.18912077 192.59458929 C164.1878466 193.99353093 164.18658912 195.39247259 164.18534851 196.79141426 C164.18442286 197.82382324 164.18442286 197.82382324 164.1834785 198.87708898 C164.18002813 203.72199189 164.18584726 208.5668327 164.19526672 213.411726 C164.20767308 219.93626634 164.19880827 226.46054424 164.1756897 232.98507118 C164.17039973 235.38000345 164.17192125 237.77496186 164.18074036 240.16988373 C164.19166757 243.43862647 164.17796499 246.70637267 164.15802002 249.97505188 C164.16694291 250.92330635 164.17586579 251.87156081 164.18505907 252.84855026 C164.11415399 258.83776942 163.16383654 262.37060971 159.65008545 267.26742554 C153.79331346 271.92045458 148.53231531 271.80325963 141.2477417 271.65805054 C140.17004013 271.65239075 139.09233856 271.64673096 137.98197937 271.64089966 C134.55838577 271.61860714 131.13585981 271.56842225 127.71258545 271.51742554 C125.38382458 271.49735141 123.05504722 271.47910224 120.72625732 271.46273804 C115.03346329 271.42217663 109.34296163 271.34386848 103.65008545 271.26742554 C103.65008545 261.36742554 103.65008545 251.46742554 103.65008545 241.26742554 C113.55008545 241.26742554 123.45008545 241.26742554 133.65008545 241.26742554 C133.65008545 171.63742554 133.65008545 102.00742554 133.65008545 30.26742554 C94.05008545 30.26742554 54.45008545 30.26742554 13.65008545 30.26742554 C13.65008545 109.79742554 13.65008545 189.32742554 13.65008545 271.26742554 C-6.34991455 271.26742554 -6.34991455 271.26742554 -12.34991455 267.26742554 C-16.63031079 261.58780779 -16.92867488 256.96135899 -16.8780365 249.98851013 C-16.89057149 248.45667333 -16.89057149 248.45667333 -16.90335971 246.89389032 C-16.92629994 243.47922302 -16.92072737 240.06521302 -16.9151001 236.65048218 C-16.92543367 234.19939961 -16.93742274 231.74832354 -16.95094299 229.29725647 C-16.97877252 223.3350723 -16.98759387 217.3731456 -16.98636749 211.41091926 C-16.98553418 206.56368819 -16.99140568 201.71651055 -17.00199318 196.86929131 C-17.03465548 181.61948809 -17.04366007 166.36984942 -17.03490344 151.12001633 C-17.02892078 139.09795688 -17.05932518 127.07630513 -17.10652616 115.05434734 C-17.15464979 102.70075804 -17.17669942 90.347365 -17.17121536 77.99367994 C-17.16864084 71.06172583 -17.17658977 64.1301624 -17.212286 57.19828987 C-17.24558814 50.68017665 -17.24246022 44.16278161 -17.21484184 37.64459419 C-17.21038108 35.25329248 -17.21785976 32.86193405 -17.23818588 30.47071457 C-17.26407254 27.20390614 -17.2467298 23.94005093 -17.21861267 20.67332458 C-17.23627408 19.72866508 -17.25393549 18.78400558 -17.2721321 17.81072003 C-17.1552505 11.52307482 -15.51962871 8.35526325 -11.14359313 3.84690565 C-7.28020673 0.4448792 -5.05213028 0.01458921 0 0 Z " fill="#FEFEFE" transform="translate(152.34991455078125,29.732574462890625)"/>
<path d="M0 0 C0 30.69 0 61.38 0 93 C-19.8 93 -39.6 93 -60 93 C-60 62.97 -60 32.94 -60 2 C-33.125 1.5625 -33.125 1.5625 -24.63720703 1.43188477 C-22.42740224 1.3937738 -20.21760356 1.3553057 -18.0078125 1.31640625 C-16.8520874 1.29993042 -15.6963623 1.28345459 -14.50561523 1.26647949 C-13.40950928 1.24629761 -12.31340332 1.22611572 -11.18408203 1.20532227 C-10.22921906 1.18977798 -9.27435608 1.1742337 -8.29055786 1.15821838 C-5.07749856 0.93627898 -3.46824016 0 0 0 Z " fill="#FEFEFE" transform="translate(316,329)"/>
<path d="M0 0 C19.8 0 39.6 0 60 0 C60 30.03 60 60.06 60 91 C33.375 91.4375 33.375 91.4375 24.99755859 91.56811523 C22.79784539 91.6062537 20.59813791 91.64472415 18.3984375 91.68359375 C17.26317627 91.70006958 16.12791504 91.71654541 14.95825195 91.73352051 C13.86262939 91.75370239 12.76700684 91.77388428 11.63818359 91.79467773 C10.2192128 91.81799416 10.2192128 91.81799416 8.77157593 91.84178162 C5.82713228 92.00986834 2.90910991 92.51514835 0 93 C0 62.31 0 31.62 0 0 Z " fill="#FEFEFE" transform="translate(196,90)"/>
<path d="M0 0 C19.8 0 39.6 0 60 0 C60 9.9 60 19.8 60 30 C40.2 30 20.4 30 0 30 C0 20.1 0 10.2 0 0 Z " fill="#3B0764" transform="translate(436,241)"/>
<path d="M0 0 C19.8 0 39.6 0 60 0 C60 9.9 60 19.8 60 30 C40.2 30 20.4 30 0 30 C0 20.1 0 10.2 0 0 Z " fill="#3B0764" transform="translate(16,241)"/>
<path d="M0 0 C3.37750257 1.25563082 6.26122364 2.68222812 9.23950195 4.70556641 C10.44018059 5.51618027 10.44018059 5.51618027 11.66511536 6.34317017 C12.5142601 6.92343964 13.36340485 7.50370911 14.23828125 8.1015625 C15.11904831 8.69802582 15.99981537 9.29448914 16.90727234 9.9090271 C19.71204562 11.80992861 22.51230629 13.71736052 25.3125 15.625 C27.21650278 16.91710014 29.12079638 18.20877186 31.02539062 19.5 C35.68697631 22.66170809 40.34487689 25.82878558 45 29 C42.96560054 34.48996705 39.89194139 38.98764493 36.625 43.8125 C35.75875 45.13797852 35.75875 45.13797852 34.875 46.49023438 C34.31039062 47.32490234 33.74578125 48.15957031 33.1640625 49.01953125 C32.65311035 49.78370361 32.1421582 50.54787598 31.61572266 51.33520508 C31.08253418 51.8845874 30.5493457 52.43396973 30 53 C25.77581309 53 25.01563343 52.67319846 21.69042969 50.4296875 C20.84986023 49.86910645 20.00929077 49.30852539 19.14324951 48.73095703 C18.24519592 48.11849121 17.34714233 47.50602539 16.421875 46.875 C15.4953009 46.25351074 14.56872681 45.63202148 13.61407471 44.99169922 C10.65350177 43.00304699 7.70174037 41.00173291 4.75 39 C2.74535851 37.65019944 0.74015681 36.30123048 -1.265625 34.953125 C-6.18362667 31.64504188 -11.09445283 28.32651986 -16 25 C-14.63313989 21.46902284 -13.1521801 18.50939683 -10.99609375 15.390625 C-10.42052734 14.55402344 -9.84496094 13.71742188 -9.25195312 12.85546875 C-8.65318359 11.99566406 -8.05441406 11.13585937 -7.4375 10.25 C-6.83486328 9.37472656 -6.23222656 8.49945313 -5.61132812 7.59765625 C-1.17569314 1.17569314 -1.17569314 1.17569314 0 0 Z " fill="#3D0965" transform="translate(444,304)"/>
<path d="M0 0 C5.63384736 2.58787795 7.97916211 7.36853915 11.3125 12.4375 C11.97056641 13.40494141 12.62863281 14.37238281 13.30664062 15.36914062 C13.92345703 16.29791016 14.54027344 17.22667969 15.17578125 18.18359375 C15.74208252 19.03493896 16.30838379 19.88628418 16.8918457 20.76342773 C18 23 18 23 17 26 C15.28526306 27.42375183 15.28526306 27.42375183 13.03100586 28.91088867 C12.19020981 29.47124313 11.34941376 30.0315976 10.48313904 30.6089325 C9.56960159 31.20591446 8.65606415 31.80289642 7.71484375 32.41796875 C6.78402481 33.03521317 5.85320587 33.65245758 4.8941803 34.28840637 C1.91357778 36.26239073 -1.07431035 38.22502449 -4.0625 40.1875 C-6.08186927 41.52204673 -8.10075594 42.85732401 -10.11914062 44.19335938 C-15.07385372 47.47074421 -20.03459817 50.73883498 -25 54 C-30.63384736 51.41212205 -32.97916211 46.63146085 -36.3125 41.5625 C-36.97056641 40.59505859 -37.62863281 39.62761719 -38.30664062 38.63085938 C-38.92345703 37.70208984 -39.54027344 36.77332031 -40.17578125 35.81640625 C-40.74208252 34.96506104 -41.30838379 34.11371582 -41.8918457 33.23657227 C-43 31 -43 31 -42 28 C-40.28526306 26.57624817 -40.28526306 26.57624817 -38.03100586 25.08911133 C-37.19020981 24.52875687 -36.34941376 23.9684024 -35.48313904 23.3910675 C-34.56960159 22.79408554 -33.65606415 22.19710358 -32.71484375 21.58203125 C-31.31861534 20.65616463 -31.31861534 20.65616463 -29.8941803 19.71159363 C-26.91357778 17.73760927 -23.92568965 15.77497551 -20.9375 13.8125 C-18.91813073 12.47795327 -16.89924406 11.14267599 -14.88085938 9.80664062 C-9.92614628 6.52925579 -4.96540183 3.26116502 0 0 Z " fill="#3D0965" transform="translate(66,304)"/>
<path d="M0 0 C3.37750257 1.25563082 6.26122364 2.68222812 9.23950195 4.70556641 C10.44018059 5.51618027 10.44018059 5.51618027 11.66511536 6.34317017 C12.5142601 6.92343964 13.36340485 7.50370911 14.23828125 8.1015625 C15.11904831 8.69802582 15.99981537 9.29448914 16.90727234 9.9090271 C19.71204562 11.80992861 22.51230629 13.71736052 25.3125 15.625 C27.21650278 16.91710014 29.12079638 18.20877186 31.02539062 19.5 C35.68697631 22.66170809 40.34487689 25.82878558 45 29 C42.96560054 34.48996705 39.89194139 38.98764493 36.625 43.8125 C35.75875 45.13797852 35.75875 45.13797852 34.875 46.49023438 C34.31039062 47.32490234 33.74578125 48.15957031 33.1640625 49.01953125 C32.65311035 49.78370361 32.1421582 50.54787598 31.61572266 51.33520508 C31.08253418 51.8845874 30.5493457 52.43396973 30 53 C25.77581309 53 25.01563343 52.67319846 21.69042969 50.4296875 C20.84986023 49.86910645 20.00929077 49.30852539 19.14324951 48.73095703 C18.24519592 48.11849121 17.34714233 47.50602539 16.421875 46.875 C15.4953009 46.25351074 14.56872681 45.63202148 13.61407471 44.99169922 C10.65350177 43.00304699 7.70174037 41.00173291 4.75 39 C2.74535851 37.65019944 0.74015681 36.30123048 -1.265625 34.953125 C-6.18362667 31.64504188 -11.09445283 28.32651986 -16 25 C-14.63313989 21.46902284 -13.1521801 18.50939683 -10.99609375 15.390625 C-10.42052734 14.55402344 -9.84496094 13.71742188 -9.25195312 12.85546875 C-8.65318359 11.99566406 -8.05441406 11.13585937 -7.4375 10.25 C-6.83486328 9.37472656 -6.23222656 8.49945313 -5.61132812 7.59765625 C-1.17569314 1.17569314 -1.17569314 1.17569314 0 0 Z " fill="#3D0965" transform="translate(39,154)"/>
<path d="M0 0 C5.63384736 2.58787795 7.97916211 7.36853915 11.3125 12.4375 C11.97056641 13.40494141 12.62863281 14.37238281 13.30664062 15.36914062 C13.92345703 16.29791016 14.54027344 17.22667969 15.17578125 18.18359375 C15.74208252 19.03493896 16.30838379 19.88628418 16.8918457 20.76342773 C18 23 18 23 17 26 C15.28526306 27.42375183 15.28526306 27.42375183 13.03100586 28.91088867 C12.19020981 29.47124313 11.34941376 30.0315976 10.48313904 30.6089325 C9.56960159 31.20591446 8.65606415 31.80289642 7.71484375 32.41796875 C6.78402481 33.03521317 5.85320587 33.65245758 4.8941803 34.28840637 C1.91357778 36.26239073 -1.07431035 38.22502449 -4.0625 40.1875 C-6.08186927 41.52204673 -8.10075594 42.85732401 -10.11914062 44.19335938 C-15.07385372 47.47074421 -20.03459817 50.73883498 -25 54 C-30.63384736 51.41212205 -32.97916211 46.63146085 -36.3125 41.5625 C-36.97056641 40.59505859 -37.62863281 39.62761719 -38.30664062 38.63085938 C-38.92345703 37.70208984 -39.54027344 36.77332031 -40.17578125 35.81640625 C-40.74208252 34.96506104 -41.30838379 34.11371582 -41.8918457 33.23657227 C-43 31 -43 31 -42 28 C-40.28526306 26.57624817 -40.28526306 26.57624817 -38.03100586 25.08911133 C-37.19020981 24.52875687 -36.34941376 23.9684024 -35.48313904 23.3910675 C-34.56960159 22.79408554 -33.65606415 22.19710358 -32.71484375 21.58203125 C-31.31861534 20.65616463 -31.31861534 20.65616463 -29.8941803 19.71159363 C-26.91357778 17.73760927 -23.92568965 15.77497551 -20.9375 13.8125 C-18.91813073 12.47795327 -16.89924406 11.14267599 -14.88085938 9.80664062 C-9.92614628 6.52925579 -4.96540183 3.26116502 0 0 Z " fill="#3D0965" transform="translate(471,154)"/>
</svg>
